<?xml version="1.0" standalone="no"?>
<!DOCTYPE svg PUBLIC "-//W3C//DTD SVG 20010904//EN"
 "http://www.w3.org/TR/2001/REC-SVG-20010904/DTD/svg10.dtd">
<svg version="1.0" xmlns="http://www.w3.org/2000/svg"
 width="700.000000pt" height="700.000000pt" viewBox="0 0 700.000000 700.000000"
 preserveAspectRatio="xMidYMid meet">
<metadata>
Created by potrace 1.11, written by Peter Selinger 2001-2013
</metadata>
<g transform="translate(0.000000,700.000000) scale(0.100000,-0.100000)"
fill="#000000" stroke="none">
<path d="M3245 6994 c-16 -2 -79 -9 -140 -15 -826 -82 -1658 -513 -2219 -1149
-480 -545 -759 -1156 -862 -1890 -19 -136 -28 -605 -13 -750 20 -214 50 -375
113 -625 22 -87 101 -314 148 -425 270 -636 713 -1168 1295 -1556 77 -52 145
-94 149 -94 4 0 15 -6 23 -14 27 -23 260 -140 392 -196 281 -120 597 -208 874
-245 22 -2 56 -7 75 -10 186 -26 698 -27 838 0 16 3 104 15 147 20 178 23 499
113 735 206 136 54 413 189 463 226 17 13 35 23 39 23 5 0 14 5 21 10 7 6 62
44 124 84 253 168 489 374 676 591 33 39 63 72 67 75 17 13 181 236 245 335
219 336 406 779 481 1140 16 79 54 301 59 350 4 33 9 71 11 85 9 47 11 525 4
605 -12 128 -21 202 -25 226 -3 13 -7 41 -10 64 -9 62 -65 324 -82 380 -42
140 -91 282 -134 387 -247 601 -666 1130 -1199 1513 -109 78 -274 185 -285
185 -3 0 -24 12 -46 26 -110 69 -377 189 -568 255 -172 59 -423 123 -571 144
-24 4 -47 8 -50 10 -5 3 -82 11 -225 24 -82 8 -497 11 -550 5z"/>
</g>
</svg>
